<?xml version="1.0" encoding="UTF-8" standalone="no"?>
<!-- Created with Inkscape (http://www.inkscape.org/) -->

<svg
   width="24in"
   height="18in"
   viewBox="0 0 609.6 457.2"
   version="1.1"
   id="svg1078"
   inkscape:version="1.1.2 (0a00cf5339, 2022-02-04, custom)"
   sodipodi:docname="laser_pattern.svg"
   xmlns:inkscape="http://www.inkscape.org/namespaces/inkscape"
   xmlns:sodipodi="http://sodipodi.sourceforge.net/DTD/sodipodi-0.dtd"
   xmlns="http://www.w3.org/2000/svg"
   xmlns:svg="http://www.w3.org/2000/svg">
  <sodipodi:namedview
     id="namedview1080"
     pagecolor="#ffffff"
     bordercolor="#666666"
     borderopacity="1.0"
     inkscape:pageshadow="2"
     inkscape:pageopacity="0.0"
     inkscape:pagecheckerboard="0"
     inkscape:document-units="in"
     showgrid="true"
     units="in"
     width="24in"
     inkscape:zoom="0.91385601"
     inkscape:cx="786.14189"
     inkscape:cy="663.88754"
     inkscape:window-width="2014"
     inkscape:window-height="1152"
     inkscape:window-x="34"
     inkscape:window-y="0"
     inkscape:window-maximized="1"
     inkscape:current-layer="layer1"
     inkscape:snap-grids="true">
    <inkscape:grid
       type="xygrid"
       id="grid1161"
       units="in"
       empspacing="8"
       spacingx="3.175"
       color="#3fa3ff"
       opacity="0.1254902"
       spacingy="3.175" />
  </sodipodi:namedview>
  <defs
     id="defs1075" />
  <g
     inkscape:label="Layer 1"
     inkscape:groupmode="layer"
     id="layer1">
    <rect
       style="fill:none;stroke:#0000ff;stroke-width:0.264583"
       id="rect1369"
       width="63.5"
       height="63.5"
       x="77.258301"
       y="78.316643" />
    <rect
       style="fill:none;stroke:#0000ff;stroke-width:0.264583"
       id="rect1369-2"
       width="63.5"
       height="63.5"
       x="146.05"
       y="14.816672" />
    <rect
       style="fill:none;stroke:#0000ff;stroke-width:0.264583"
       id="rect1369-35"
       width="57.150002"
       height="57.149998"
       x="80.43325"
       y="14.81668" />
    <rect
       style="fill:none;stroke:#0000ff;stroke-width:0.264583"
       id="rect1369-35-6"
       width="57.150002"
       height="57.149998"
       x="13.758351"
       y="14.81668" />
    <rect
       style="fill:none;stroke:#0000ff;stroke-width:0.264583"
       id="rect1369-7"
       width="57.150002"
       height="60.325005"
       x="13.758351"
       y="78.316643" />
    <rect
       style="fill:none;stroke:#0000ff;stroke-width:0.264583"
       id="rect1369-7-5"
       width="57.150002"
       height="60.325005"
       x="147.10826"
       y="84.666634" />
    <rect
       style="fill:none;stroke:#0000ff;stroke-width:0.264583"
       id="rect1369-3"
       width="63.5"
       height="60.325005"
       x="77.258301"
       y="148.16663" />
    <g
       aria-label="BOTTOM"
       id="text2912"
       style="font-size:3.52778px;line-height:1.25;fill:none;stroke:#ff0000;stroke-width:0.176389;stroke-miterlimit:4;stroke-dasharray:none"
       transform="translate(-100.54167,-74.083335)">
      <path
         d="m 180.95747,212.4043 v 0.94223 h 0.41169 q 0.30317,0 0.43236,-0.10507 0.12919,-0.1068 0.12919,-0.34968 0,-0.25149 -0.13608,-0.36862 -0.13608,-0.11886 -0.42547,-0.11886 z m 0,-1.05765 v 0.77515 h 0.4048 q 0.2515,0 0.36346,-0.0965 0.11369,-0.0965 0.11369,-0.31178 0,-0.19465 -0.11197,-0.28078 -0.11024,-0.0861 -0.36518,-0.0861 z m -0.34967,-0.28594 h 0.76136 q 0.39447,0 0.60806,0.17053 0.2136,0.17054 0.2136,0.48232 0,0.23599 -0.11369,0.37207 -0.11196,0.13608 -0.33762,0.17053 0.25322,0.0379 0.39619,0.21704 0.14469,0.17742 0.14469,0.45303 0,0.34968 -0.2291,0.52882 -0.2291,0.17743 -0.68213,0.17743 h -0.76136 z"
         style="font-family:monospace;-inkscape-font-specification:monospace;fill:none;stroke:#ff0000;stroke-width:0.176389;stroke-miterlimit:4;stroke-dasharray:none"
         id="path15790" />
      <path
         d="m 184.00466,212.34918 q 0,-0.56672 -0.11713,-0.8096 -0.11541,-0.24288 -0.38068,-0.24288 -0.26355,0 -0.38069,0.24288 -0.11541,0.24288 -0.11541,0.8096 0,0.56499 0.11541,0.80787 0.11714,0.24288 0.38069,0.24288 0.26527,0 0.38068,-0.24115 0.11713,-0.24288 0.11713,-0.8096 z m 0.36346,0 q 0,0.67179 -0.2136,1.00252 -0.21187,0.33073 -0.64767,0.33073 -0.43581,0 -0.64768,-0.32901 -0.21188,-0.329 -0.21188,-1.00424 0,-0.67352 0.21188,-1.00425 0.21359,-0.33073 0.64768,-0.33073 0.4358,0 0.64767,0.33073 0.2136,0.33073 0.2136,1.00425 z"
         style="font-family:monospace;-inkscape-font-specification:monospace;fill:none;stroke:#ff0000;stroke-width:0.176389;stroke-miterlimit:4;stroke-dasharray:none"
         id="path15792" />
      <path
         d="m 184.65062,211.06071 h 1.96198 v 0.29283 h -0.80443 v 2.27894 h -0.34968 v -2.27894 h -0.80787 z"
         style="font-family:monospace;-inkscape-font-specification:monospace;fill:none;stroke:#ff0000;stroke-width:0.176389;stroke-miterlimit:4;stroke-dasharray:none"
         id="path15794" />
      <path
         d="m 186.77452,211.06071 h 1.96198 v 0.29283 h -0.80443 v 2.27894 h -0.34967 v -2.27894 h -0.80788 z"
         style="font-family:monospace;-inkscape-font-specification:monospace;fill:none;stroke:#ff0000;stroke-width:0.176389;stroke-miterlimit:4;stroke-dasharray:none"
         id="path15796" />
      <path
         d="m 190.37637,212.34918 q 0,-0.56672 -0.11713,-0.8096 -0.11541,-0.24288 -0.38069,-0.24288 -0.26355,0 -0.38068,0.24288 -0.11541,0.24288 -0.11541,0.8096 0,0.56499 0.11541,0.80787 0.11713,0.24288 0.38068,0.24288 0.26528,0 0.38069,-0.24115 0.11713,-0.24288 0.11713,-0.8096 z m 0.36346,0 q 0,0.67179 -0.2136,1.00252 -0.21187,0.33073 -0.64768,0.33073 -0.4358,0 -0.64767,-0.32901 -0.21188,-0.329 -0.21188,-1.00424 0,-0.67352 0.21188,-1.00425 0.21359,-0.33073 0.64767,-0.33073 0.43581,0 0.64768,0.33073 0.2136,0.33073 0.2136,1.00425 z"
         style="font-family:monospace;-inkscape-font-specification:monospace;fill:none;stroke:#ff0000;stroke-width:0.176389;stroke-miterlimit:4;stroke-dasharray:none"
         id="path15798" />
      <path
         d="m 191.08951,211.06071 h 0.46509 l 0.44441,1.30914 0.44787,-1.30914 h 0.46681 v 2.57177 h -0.32212 v -2.27205 l -0.4582,1.35565 h -0.26355 l -0.45992,-1.35565 v 2.27205 h -0.32039 z"
         style="font-family:monospace;-inkscape-font-specification:monospace;fill:none;stroke:#ff0000;stroke-width:0.176389;stroke-miterlimit:4;stroke-dasharray:none"
         id="path15800" />
    </g>
    <g
       aria-label="TOP"
       id="text2912-1"
       style="font-size:3.52778px;line-height:1.25;fill:none;stroke:#ff0000;stroke-width:0.176389;stroke-miterlimit:4;stroke-dasharray:none"
       transform="translate(-31.750012,-67.733335)">
      <path
         d="m 179.20631,142.18928 h 1.96198 v 0.29284 h -0.80443 v 2.27893 h -0.34967 v -2.27893 h -0.80788 z"
         style="font-family:monospace;-inkscape-font-specification:monospace;fill:none;stroke:#ff0000;stroke-width:0.176389;stroke-miterlimit:4;stroke-dasharray:none"
         id="path15814" />
      <path
         d="m 182.80816,143.47775 q 0,-0.56672 -0.11713,-0.8096 -0.11541,-0.24288 -0.38069,-0.24288 -0.26355,0 -0.38068,0.24288 -0.11541,0.24288 -0.11541,0.8096 0,0.56499 0.11541,0.80787 0.11713,0.24288 0.38068,0.24288 0.26528,0 0.38069,-0.24115 0.11713,-0.24288 0.11713,-0.8096 z m 0.36346,0 q 0,0.67179 -0.2136,1.00252 -0.21187,0.33073 -0.64768,0.33073 -0.4358,0 -0.64767,-0.32901 -0.21188,-0.329 -0.21188,-1.00424 0,-0.67352 0.21188,-1.00425 0.21359,-0.33073 0.64767,-0.33073 0.43581,0 0.64768,0.33073 0.2136,0.33073 0.2136,1.00425 z"
         style="font-family:monospace;-inkscape-font-specification:monospace;fill:none;stroke:#ff0000;stroke-width:0.176389;stroke-miterlimit:4;stroke-dasharray:none"
         id="path15816" />
      <path
         d="m 184.06045,142.47523 v 0.96634 h 0.40308 q 0.24116,0 0.37552,-0.12746 0.13608,-0.12747 0.13608,-0.35657 0,-0.2291 -0.13436,-0.35485 -0.13436,-0.12746 -0.37724,-0.12746 z m -0.34795,-0.28595 h 0.75103 q 0.43064,0 0.65285,0.19637 0.2222,0.19465 0.2222,0.57189 0,0.38068 -0.2222,0.57533 -0.22049,0.19465 -0.65285,0.19465 h -0.40308 v 1.03353 h -0.34795 z"
         style="font-family:monospace;-inkscape-font-specification:monospace;fill:none;stroke:#ff0000;stroke-width:0.176389;stroke-miterlimit:4;stroke-dasharray:none"
         id="path15818" />
    </g>
    <g
       aria-label="BACK"
       id="text2912-1-5"
       style="font-size:3.52778px;line-height:1.25;fill:none;stroke:#ff0000;stroke-width:0.176389;stroke-miterlimit:4;stroke-dasharray:none"
       transform="translate(-167.21667,-74.083335)">
      <path
         d="m 250.6693,142.47451 v 0.94223 h 0.41169 q 0.30316,0 0.43236,-0.10508 0.12919,-0.10679 0.12919,-0.34967 0,-0.2515 -0.13608,-0.36863 -0.13609,-0.11885 -0.42547,-0.11885 z m 0,-1.05765 v 0.77515 h 0.4048 q 0.25149,0 0.36345,-0.0965 0.11369,-0.0965 0.11369,-0.31178 0,-0.19464 -0.11196,-0.28077 -0.11025,-0.0861 -0.36518,-0.0861 z m -0.34968,-0.28594 h 0.76137 q 0.39446,0 0.60806,0.17053 0.21359,0.17053 0.21359,0.48231 0,0.23599 -0.11369,0.37207 -0.11196,0.13608 -0.33762,0.17054 0.25322,0.0379 0.39619,0.21704 0.14469,0.17742 0.14469,0.45303 0,0.34967 -0.22909,0.52882 -0.2291,0.17742 -0.68213,0.17742 h -0.76137 z"
         style="font-family:monospace;-inkscape-font-specification:monospace;fill:none;stroke:#ff0000;stroke-width:0.176389;stroke-miterlimit:4;stroke-dasharray:none"
         id="path15821" />
      <path
         d="m 253.21867,141.43753 -0.3669,1.31603 h 0.7338 z m -0.21015,-0.30661 h 0.42202 l 0.78721,2.57176 h -0.36002 l -0.18948,-0.67007 h -0.90089 l -0.18603,0.67007 h -0.36002 z"
         style="font-family:monospace;-inkscape-font-specification:monospace;fill:none;stroke:#ff0000;stroke-width:0.176389;stroke-miterlimit:4;stroke-dasharray:none"
         id="path15823" />
      <path
         d="m 256.12978,143.61139 q -0.13264,0.0706 -0.27217,0.10507 -0.13952,0.0362 -0.29627,0.0362 -0.49438,0 -0.76826,-0.34968 -0.27216,-0.34968 -0.27216,-0.98358 0,-0.63045 0.27388,-0.98185 0.27561,-0.35312 0.76654,-0.35312 0.15675,0 0.29627,0.0362 0.13953,0.0345 0.27217,0.10508 v 0.35656 q -0.12747,-0.10507 -0.27389,-0.16019 -0.14642,-0.0551 -0.29455,-0.0551 -0.33935,0 -0.50816,0.26182 -0.16881,0.26183 -0.16881,0.79065 0,0.5271 0.16881,0.78893 0.16881,0.26183 0.50816,0.26183 0.15158,0 0.29627,-0.0551 0.14642,-0.0551 0.27217,-0.1602 z"
         style="font-family:monospace;-inkscape-font-specification:monospace;fill:none;stroke:#ff0000;stroke-width:0.176389;stroke-miterlimit:4;stroke-dasharray:none"
         id="path15825" />
      <path
         d="m 256.64137,141.13092 h 0.34968 v 1.14377 l 1.08693,-1.14377 h 0.40824 l -1.0008,1.05075 1.03009,1.52101 h -0.42031 l -0.83888,-1.28846 -0.26527,0.28249 v 1.00597 h -0.34968 z"
         style="font-family:monospace;-inkscape-font-specification:monospace;fill:none;stroke:#ff0000;stroke-width:0.176389;stroke-miterlimit:4;stroke-dasharray:none"
         id="path15827" />
    </g>
    <g
       aria-label="INNER TOP"
       id="text2912-1-61"
       style="font-size:3.52778px;line-height:1.25;fill:none;stroke:#ff0000;stroke-width:0.176389;stroke-miterlimit:4;stroke-dasharray:none"
       transform="translate(-100.54167,-74.083335)">
      <path
         d="m 116.50071,142.18928 h 1.428 v 0.29284 h -0.53916 v 1.98609 h 0.53916 v 0.29284 h -1.428 v -0.29284 h 0.53916 v -1.98609 h -0.53916 z"
         style="font-family:monospace;-inkscape-font-specification:monospace;fill:none;stroke:#ff0000;stroke-width:0.176389;stroke-miterlimit:4;stroke-dasharray:none"
         id="path15764" />
      <path
         d="m 118.51782,142.18928 h 0.44097 l 0.86816,2.11701 v -2.11701 h 0.3359 v 2.57177 h -0.44097 l -0.86817,-2.11702 v 2.11702 h -0.33589 z"
         style="font-family:monospace;-inkscape-font-specification:monospace;fill:none;stroke:#ff0000;stroke-width:0.176389;stroke-miterlimit:4;stroke-dasharray:none"
         id="path15766" />
      <path
         d="m 120.64172,142.18928 h 0.44097 l 0.86817,2.11701 v -2.11701 h 0.33589 v 2.57177 h -0.44097 l -0.86816,-2.11702 v 2.11702 h -0.3359 z"
         style="font-family:monospace;-inkscape-font-specification:monospace;fill:none;stroke:#ff0000;stroke-width:0.176389;stroke-miterlimit:4;stroke-dasharray:none"
         id="path15768" />
      <path
         d="m 122.86553,142.18928 h 1.52618 v 0.29284 h -1.17822 v 0.76136 h 1.12654 v 0.29284 h -1.12654 v 0.93189 h 1.21095 v 0.29284 h -1.55891 z"
         style="font-family:monospace;-inkscape-font-specification:monospace;fill:none;stroke:#ff0000;stroke-width:0.176389;stroke-miterlimit:4;stroke-dasharray:none"
         id="path15770" />
      <path
         d="m 125.95923,143.54665 q 0.13436,0.0344 0.2291,0.13091 0.0947,0.0947 0.23599,0.38069 l 0.34967,0.7028 h -0.37379 l -0.30661,-0.6494 q -0.13264,-0.27733 -0.23944,-0.35657 -0.10507,-0.081 -0.2756,-0.081 h -0.33246 v 1.08693 h -0.34967 v -2.57177 h 0.71658 q 0.42374,0 0.6494,0.1912 0.22565,0.19121 0.22565,0.55294 0,0.25494 -0.13953,0.41686 -0.1378,0.1602 -0.38929,0.19637 z m -0.71314,-1.07142 v 0.91295 h 0.38069 q 0.24977,0 0.37207,-0.11197 0.1223,-0.11197 0.1223,-0.34279 0,-0.22221 -0.13092,-0.33934 -0.12919,-0.11885 -0.37723,-0.11885 z"
         style="font-family:monospace;-inkscape-font-specification:monospace;fill:none;stroke:#ff0000;stroke-width:0.176389;stroke-miterlimit:4;stroke-dasharray:none"
         id="path15772" />
      <path
         d="m 128.97886,142.18928 h 1.96198 v 0.29284 h -0.80443 v 2.27893 h -0.34968 v -2.27893 h -0.80787 z"
         style="font-family:monospace;-inkscape-font-specification:monospace;fill:none;stroke:#ff0000;stroke-width:0.176389;stroke-miterlimit:4;stroke-dasharray:none"
         id="path15774" />
      <path
         d="m 132.58071,143.47775 q 0,-0.56672 -0.11714,-0.8096 -0.11541,-0.24288 -0.38068,-0.24288 -0.26355,0 -0.38068,0.24288 -0.11541,0.24288 -0.11541,0.8096 0,0.56499 0.11541,0.80787 0.11713,0.24288 0.38068,0.24288 0.26527,0 0.38068,-0.24115 0.11714,-0.24288 0.11714,-0.8096 z m 0.36345,0 q 0,0.67179 -0.21359,1.00252 -0.21188,0.33073 -0.64768,0.33073 -0.43581,0 -0.64768,-0.32901 -0.21187,-0.329 -0.21187,-1.00424 0,-0.67352 0.21187,-1.00425 0.2136,-0.33073 0.64768,-0.33073 0.4358,0 0.64768,0.33073 0.21359,0.33073 0.21359,1.00425 z"
         style="font-family:monospace;-inkscape-font-specification:monospace;fill:none;stroke:#ff0000;stroke-width:0.176389;stroke-miterlimit:4;stroke-dasharray:none"
         id="path15776" />
      <path
         d="m 133.833,142.47523 v 0.96634 h 0.40308 q 0.24115,0 0.37551,-0.12746 0.13608,-0.12747 0.13608,-0.35657 0,-0.2291 -0.13436,-0.35485 -0.13435,-0.12746 -0.37723,-0.12746 z m -0.34796,-0.28595 h 0.75104 q 0.43063,0 0.65284,0.19637 0.22221,0.19465 0.22221,0.57189 0,0.38068 -0.22221,0.57533 -0.22048,0.19465 -0.65284,0.19465 H 133.833 v 1.03353 h -0.34796 z"
         style="font-family:monospace;-inkscape-font-specification:monospace;fill:none;stroke:#ff0000;stroke-width:0.176389;stroke-miterlimit:4;stroke-dasharray:none"
         id="path15778" />
    </g>
    <g
       aria-label="SIDE"
       id="text2912-1-6"
       style="font-size:3.52778px;line-height:1.25;fill:none;stroke:#ff0000;stroke-width:0.176389;stroke-miterlimit:4;stroke-dasharray:none"
       transform="translate(-100.54167,-74.083335)">
      <path
         d="m 117.11248,208.93497 v 0.35312 q -0.15847,-0.10163 -0.31867,-0.15331 -0.15847,-0.0517 -0.32039,-0.0517 -0.24633,0 -0.3893,0.11541 -0.14297,0.11369 -0.14297,0.30834 0,0.17053 0.093,0.2601 0.0947,0.0896 0.3514,0.14986 l 0.18259,0.0413 q 0.36173,0.0844 0.5271,0.26528 0.16536,0.18086 0.16536,0.49264 0,0.36691 -0.22738,0.55983 -0.22737,0.19293 -0.66145,0.19293 -0.18087,0 -0.36346,-0.0396 -0.18259,-0.0379 -0.3669,-0.11541 v -0.37035 q 0.19809,0.12575 0.37379,0.18431 0.17742,0.0586 0.35657,0.0586 0.26355,0 0.40996,-0.11713 0.14642,-0.11886 0.14642,-0.33073 0,-0.19293 -0.10163,-0.29456 -0.0999,-0.10163 -0.34968,-0.15675 l -0.18603,-0.0431 q -0.35829,-0.081 -0.52021,-0.24461 -0.16192,-0.16364 -0.16192,-0.43925 0,-0.34451 0.23082,-0.55121 0.23254,-0.20843 0.61667,-0.20843 0.14814,0 0.31178,0.0344 0.16364,0.0327 0.34451,0.0999 z"
         style="font-family:monospace;-inkscape-font-specification:monospace;fill:none;stroke:#ff0000;stroke-width:0.176389;stroke-miterlimit:4;stroke-dasharray:none"
         id="path15781" />
      <path
         d="m 117.8394,208.84712 h 1.42799 v 0.29283 h -0.53916 v 1.9861 h 0.53916 v 0.29283 h -1.42799 v -0.29283 h 0.53916 v -1.9861 h -0.53916 z"
         style="font-family:monospace;-inkscape-font-specification:monospace;fill:none;stroke:#ff0000;stroke-width:0.176389;stroke-miterlimit:4;stroke-dasharray:none"
         id="path15783" />
      <path
         d="m 120.3681,211.13294 q 0.43925,0 0.61323,-0.21532 0.17397,-0.21704 0.17397,-0.78203 0,-0.57017 -0.17397,-0.78549 -0.17226,-0.21704 -0.61323,-0.21704 h -0.16537 v 1.99988 z m 0.007,-2.28582 q 0.58911,0 0.86816,0.3135 0.27906,0.31351 0.27906,0.97497 0,0.65801 -0.27906,0.97151 -0.27905,0.31178 -0.86816,0.31178 h -0.52193 v -2.57176 z"
         style="font-family:monospace;-inkscape-font-specification:monospace;fill:none;stroke:#ff0000;stroke-width:0.176389;stroke-miterlimit:4;stroke-dasharray:none"
         id="path15785" />
      <path
         d="m 122.08031,208.84712 h 1.52618 v 0.29283 h -1.17822 v 0.76137 h 1.12655 v 0.29283 h -1.12655 v 0.9319 h 1.21095 v 0.29283 h -1.55891 z"
         style="font-family:monospace;-inkscape-font-specification:monospace;fill:none;stroke:#ff0000;stroke-width:0.176389;stroke-miterlimit:4;stroke-dasharray:none"
         id="path15787" />
    </g>
    <g
       aria-label="SIDE"
       id="text2912-1-6-2"
       style="font-size:3.52778px;line-height:1.25;fill:none;stroke:#ff0000;stroke-width:0.176389;stroke-miterlimit:4;stroke-dasharray:none"
       transform="translate(-100.54167,-67.733335)">
      <path
         d="m 251.13188,208.61438 v 0.35312 q -0.15848,-0.10163 -0.31868,-0.1533 -0.15847,-0.0517 -0.32039,-0.0517 -0.24632,0 -0.3893,0.11541 -0.14297,0.11369 -0.14297,0.30834 0,0.17053 0.093,0.2601 0.0947,0.0896 0.3514,0.14986 l 0.18259,0.0414 q 0.36174,0.0844 0.5271,0.26527 0.16537,0.18087 0.16537,0.49265 0,0.3669 -0.22738,0.55983 -0.22738,0.19292 -0.66146,0.19292 -0.18087,0 -0.36346,-0.0396 -0.18259,-0.0379 -0.3669,-0.11541 v -0.37035 q 0.19809,0.12575 0.37379,0.18432 0.17742,0.0586 0.35657,0.0586 0.26355,0 0.40997,-0.11713 0.14641,-0.11886 0.14641,-0.33073 0,-0.19293 -0.10163,-0.29456 -0.0999,-0.10163 -0.34967,-0.15675 l -0.18604,-0.0431 q -0.35829,-0.081 -0.52021,-0.2446 -0.16192,-0.16365 -0.16192,-0.43925 0,-0.34451 0.23082,-0.55122 0.23255,-0.20843 0.61667,-0.20843 0.14814,0 0.31179,0.0344 0.16364,0.0327 0.34451,0.0999 z"
         style="font-family:monospace;-inkscape-font-specification:monospace;fill:none;stroke:#ff0000;stroke-width:0.176389;stroke-miterlimit:4;stroke-dasharray:none"
         id="path15830" />
      <path
         d="m 251.85879,208.52653 h 1.42799 v 0.29283 h -0.53915 v 1.9861 h 0.53915 v 0.29284 h -1.42799 v -0.29284 h 0.53916 v -1.9861 h -0.53916 z"
         style="font-family:monospace;-inkscape-font-specification:monospace;fill:none;stroke:#ff0000;stroke-width:0.176389;stroke-miterlimit:4;stroke-dasharray:none"
         id="path15832" />
      <path
         d="m 254.38749,210.81235 q 0.43925,0 0.61323,-0.21531 0.17398,-0.21705 0.17398,-0.78204 0,-0.57017 -0.17398,-0.78548 -0.17225,-0.21705 -0.61323,-0.21705 h -0.16536 v 1.99988 z m 0.007,-2.28582 q 0.58912,0 0.86817,0.31351 0.27905,0.3135 0.27905,0.97496 0,0.65801 -0.27905,0.97152 -0.27905,0.31178 -0.86817,0.31178 h -0.52193 v -2.57177 z"
         style="font-family:monospace;-inkscape-font-specification:monospace;fill:none;stroke:#ff0000;stroke-width:0.176389;stroke-miterlimit:4;stroke-dasharray:none"
         id="path15834" />
      <path
         d="m 256.09971,208.52653 h 1.52618 v 0.29283 h -1.17823 v 0.76137 h 1.12655 v 0.29283 h -1.12655 v 0.9319 h 1.21095 v 0.29284 h -1.5589 z"
         style="font-family:monospace;-inkscape-font-specification:monospace;fill:none;stroke:#ff0000;stroke-width:0.176389;stroke-miterlimit:4;stroke-dasharray:none"
         id="path15836" />
    </g>
    <g
       aria-label="FRONT"
       id="text2912-3"
       style="font-size:3.52778px;line-height:1.25;fill:none;stroke:#ff0000;stroke-width:0.176389;stroke-miterlimit:4;stroke-dasharray:none"
       transform="translate(-100.54167,-74.083335)">
      <path
         d="m 179.51604,278.79322 h 1.51412 v 0.29284 h -1.16444 v 0.75792 h 1.05592 v 0.29283 h -1.05592 v 1.22818 h -0.34968 z"
         style="font-family:monospace;-inkscape-font-specification:monospace;fill:none;stroke:#ff0000;stroke-width:0.176389;stroke-miterlimit:4;stroke-dasharray:none"
         id="path15803" />
      <path
         d="m 182.54772,280.15059 q 0.13436,0.0344 0.2291,0.13092 0.0947,0.0947 0.23599,0.38068 l 0.34968,0.7028 h -0.37379 l -0.30662,-0.6494 q -0.13263,-0.27733 -0.23943,-0.35657 -0.10508,-0.081 -0.27561,-0.081 h -0.33245 v 1.08693 h -0.34968 v -2.57177 h 0.71658 q 0.42375,0 0.6494,0.19121 0.22566,0.1912 0.22566,0.55294 0,0.25493 -0.13953,0.41685 -0.1378,0.1602 -0.3893,0.19637 z m -0.71313,-1.07142 v 0.91295 h 0.38068 q 0.24977,0 0.37207,-0.11197 0.1223,-0.11196 0.1223,-0.34278 0,-0.22221 -0.13091,-0.33935 -0.12919,-0.11885 -0.37724,-0.11885 z"
         style="font-family:monospace;-inkscape-font-specification:monospace;fill:none;stroke:#ff0000;stroke-width:0.176389;stroke-miterlimit:4;stroke-dasharray:none"
         id="path15805" />
      <path
         d="m 184.9214,280.08169 q 0,-0.56672 -0.11714,-0.8096 -0.11541,-0.24288 -0.38068,-0.24288 -0.26355,0 -0.38068,0.24288 -0.11541,0.24288 -0.11541,0.8096 0,0.565 0.11541,0.80788 0.11713,0.24288 0.38068,0.24288 0.26527,0 0.38068,-0.24116 0.11714,-0.24288 0.11714,-0.8096 z m 0.36346,0 q 0,0.6718 -0.2136,1.00252 -0.21187,0.33073 -0.64768,0.33073 -0.4358,0 -0.64768,-0.329 -0.21187,-0.32901 -0.21187,-1.00425 0,-0.67352 0.21187,-1.00424 0.2136,-0.33073 0.64768,-0.33073 0.43581,0 0.64768,0.33073 0.2136,0.33072 0.2136,1.00424 z"
         style="font-family:monospace;-inkscape-font-specification:monospace;fill:none;stroke:#ff0000;stroke-width:0.176389;stroke-miterlimit:4;stroke-dasharray:none"
         id="path15807" />
      <path
         d="m 185.72583,278.79322 h 0.44097 l 0.86816,2.11702 v -2.11702 h 0.3359 v 2.57177 h -0.44097 l -0.86817,-2.11701 v 2.11701 h -0.33589 z"
         style="font-family:monospace;-inkscape-font-specification:monospace;fill:none;stroke:#ff0000;stroke-width:0.176389;stroke-miterlimit:4;stroke-dasharray:none"
         id="path15809" />
      <path
         d="m 187.69126,278.79322 h 1.96198 v 0.29284 h -0.80443 v 2.27893 h -0.34968 v -2.27893 h -0.80787 z"
         style="font-family:monospace;-inkscape-font-specification:monospace;fill:none;stroke:#ff0000;stroke-width:0.176389;stroke-miterlimit:4;stroke-dasharray:none"
         id="path15811" />
    </g>
    <g
       id="g16575-6-5"
       transform="translate(-348.23187,-35.829658)">
      <circle
         style="fill:none;stroke:#ff0000;stroke-width:0.176389;stroke-miterlimit:4;stroke-dasharray:none"
         id="path15963-9-2"
         cx="457.19998"
         cy="146.05"
         r="25.4" />
      <circle
         style="fill:none;stroke:#000000;stroke-width:0.176389;stroke-miterlimit:4;stroke-dasharray:none"
         id="path16397-3-5"
         cx="445.7287"
         cy="126.06852"
         r="1.6339102" />
      <circle
         style="fill:none;stroke:#000000;stroke-width:0.176389;stroke-miterlimit:4;stroke-dasharray:none"
         id="path16397-6-7-4"
         cx="445.7561"
         cy="166.25252"
         r="1.6339102" />
      <circle
         style="fill:none;stroke:#000000;stroke-width:0.176389;stroke-miterlimit:4;stroke-dasharray:none"
         id="path16397-6-5-4-7"
         cx="480.6062"
         cy="146.13922"
         r="1.6339102" />
    </g>
    <rect
       style="fill:none;stroke:#0000ff;stroke-width:0.176389;stroke-miterlimit:4;stroke-dasharray:none"
       id="rect17141"
       width="50.799999"
       height="6.3499999"
       x="147.10826"
       y="154.51662" />
    <rect
       style="fill:none;stroke:#0000ff;stroke-width:0.176389;stroke-miterlimit:4;stroke-dasharray:none"
       id="rect17141-8"
       width="47.625015"
       height="6.3499999"
       x="147.10826"
       y="164.04161" />
    <rect
       style="fill:none;stroke:#0000ff;stroke-width:0.176389;stroke-miterlimit:4;stroke-dasharray:none"
       id="rect17141-8-8"
       width="47.625015"
       height="6.3499999"
       x="147.10826"
       y="173.56662" />
    <rect
       style="fill:none;stroke:#0000ff;stroke-width:0.176389;stroke-miterlimit:4;stroke-dasharray:none"
       id="rect17141-8-8-4"
       width="44.449993"
       height="6.3499999"
       x="147.10826"
       y="183.09164" />
  </g>
</svg>
